<?xml version="1.0" encoding="UTF-8" standalone="no"?>
<svg
   xmlns:dc="http://purl.org/dc/elements/1.1/"
   xmlns:cc="http://creativecommons.org/ns#"
   xmlns:rdf="http://www.w3.org/1999/02/22-rdf-syntax-ns#"
   xmlns:svg="http://www.w3.org/2000/svg"
   xmlns="http://www.w3.org/2000/svg"
   xmlns:sodipodi="http://sodipodi.sourceforge.net/DTD/sodipodi-0.dtd"
   xmlns:inkscape="http://www.inkscape.org/namespaces/inkscape"
   sodipodi:docname="icon.svg"
   inkscape:version="1.0beta2 (2b71d25, 2019-12-03)"
   id="svg8"
   version="1.1"
   viewBox="0 0 52.916668 52.916668"
   height="52.916668mm"
   width="52.916668mm">
  <defs
     id="defs2" />
  <sodipodi:namedview
     inkscape:window-maximized="0"
     inkscape:window-y="0"
     inkscape:window-x="0"
     inkscape:window-height="778"
     inkscape:window-width="1280"
     inkscape:snap-bbox-midpoints="true"
     inkscape:snap-bbox="true"
     fit-margin-bottom="0"
     fit-margin-right="0"
     fit-margin-left="0"
     fit-margin-top="0"
     showgrid="false"
     inkscape:document-rotation="0"
     inkscape:current-layer="layer1"
     inkscape:document-units="mm"
     inkscape:cy="62.755421"
     inkscape:cx="103.31303"
     inkscape:zoom="1.2083356"
     inkscape:pageshadow="2"
     inkscape:pageopacity="0.0"
     borderopacity="1.0"
     bordercolor="#666666"
     pagecolor="#ffffff"
     id="base" />
  <metadata
     id="metadata5">
    <rdf:RDF>
      <cc:Work
         rdf:about="">
        <dc:format>image/svg+xml</dc:format>
        <dc:type
           rdf:resource="http://purl.org/dc/dcmitype/StillImage" />
        <dc:title></dc:title>
      </cc:Work>
    </rdf:RDF>
  </metadata>
  <g
     transform="translate(-48.380955,-96.005951)"
     id="layer1"
     inkscape:groupmode="layer"
     inkscape:label="Laag 1">
    <rect
       y="96.005951"
       x="48.380955"
       height="52.916664"
       width="52.916664"
       id="rect996"
       style="fill:#363636;fill-opacity:1;stroke-width:4.99999;stroke-linecap:round;paint-order:stroke fill markers" />
    <g
       style="stroke-width:3.57858;fill:#ffffff;fill-opacity:0.5"
       transform="matrix(0.07393541,0,0,0.07393541,56.331407,103.99888)"
       id="g984">
	<path
   style="stroke-width:3.57858;fill:#ffffff;fill-opacity:0.5"
   inkscape:connector-curvature="0"
   fill="#010101"
   d="m 250.323,428.491 h 60.892 c 0,-40.795 94.736,-152.1 94.736,-152.1 C 336.587,221.639 276.361,57.203 256.923,-0.239 V 258.93 c 12.343,2.795 21.583,13.789 21.583,26.982 0,15.306 -12.405,27.711 -27.711,27.711 -15.306,0 -27.719,-12.405 -27.719,-27.711 0,-12.851 8.788,-23.548 20.651,-26.694 V -0.25 c -19.438,57.431 -79.668,221.885 -149.028,276.642 0,0 94.721,111.305 94.721,152.1 h 60.903 z"
   id="path980" />

	<path
   style="stroke-width:3.57858;fill:#ffffff;fill-opacity:0.5"
   inkscape:connector-curvature="0"
   fill="#010101"
   d="m 334.778,456.203 c 0,-8.016 -6.495,-14.519 -14.511,-14.519 h -139.89 c -8.02,0 -14.519,6.503 -14.519,14.519 0,8.016 6.499,14.518 14.519,14.518 -8.02,0 -14.519,6.495 -14.519,14.519 0,8.016 6.499,14.511 14.519,14.511 h 139.89 c 8.016,0 14.511,-6.495 14.511,-14.511 0,-8.023 -6.495,-14.519 -14.511,-14.519 8.016,0 14.511,-6.502 14.511,-14.518 z"
   id="path982" />

</g>
  </g>
</svg>
